<svg xmlns="http://www.w3.org/2000/svg" width="1920" height="1080" viewBox="0 0 1920 1080">
<defs>
  <filter id="shadow" x="-20%" y="-20%" width="140%" height="160%"><feDropShadow dx="0" dy="5" stdDeviation="9" flood-color="#12213d" flood-opacity=".08"/></filter>
  <style>
    .t{font-family:Vazirmatn,Tahoma,"Segoe UI",sans-serif}.dark{fill:#12213d}.muted{fill:#64748b}
    .line{stroke:#dfe5ee}.card{fill:#fff;stroke:#dfe5ee}.ico{fill:none;stroke:#12213d;stroke-width:2;stroke-linecap:round;stroke-linejoin:round}
  </style>
</defs>
<rect width="1920" height="1080" fill="#f5f7fb"/>

<!-- Primary navigation: frozen shell -->
<rect width="1920" height="66" fill="#fff"/>
<line x1="0" y1="65.5" x2="1920" y2="65.5" stroke="#dfe5ee"/>
<rect x="1848" y="14" width="38" height="38" rx="8" fill="#155bd7"/>
<path d="M1867 21l10 12-10 12-10-12z" fill="none" stroke="#fff" stroke-width="2"/>
<text x="1835" y="40" class="t dark" font-size="22" font-weight="800" text-anchor="end">آسود ERP</text>
<g class="t" font-size="14" fill="#12213d" text-anchor="middle">
  <text x="1644" y="41">داشبورد</text><text x="1515" y="41">مالی</text><text x="1400" y="41">خزانه‌داری</text>
  <text x="1285" y="41">فروش</text><text x="1180" y="41">خرید</text><text x="1080" y="41">انبار</text>
  <text x="965" y="41">منابع انسانی</text><text x="850" y="41">گزارش‌ها</text>
  <text x="735" y="41" fill="#155bd7" font-weight="700">تنظیمات</text>
  <rect x="686" y="63" width="98" height="3" fill="#155bd7"/>
</g>
<rect x="384" y="13" width="252" height="40" rx="9" fill="#f8fafd" stroke="#dfe5ee"/>
<circle cx="414" cy="33" r="7" fill="none" stroke="#155bd7" stroke-width="2"/><path d="M419 38l6 6" stroke="#155bd7" stroke-width="2"/>
<text x="611" y="38" class="t muted" font-size="12" text-anchor="end">جست‌وجوی ماژول یا فرمان...</text>
<circle cx="350" cy="33" r="7" class="ico"/><path d="M350 23v2M342 43h16" class="ico"/>
<circle cx="298" cy="32" r="8" class="ico"/><text x="298" y="37" font-family="Arial" font-size="13" text-anchor="middle" fill="#12213d">?</text>
<circle cx="224" cy="33" r="20" fill="#edf3ff"/><circle cx="224" cy="29" r="6" class="ico"/><path d="M214 44c2-7 18-7 20 0" class="ico"/>
<text x="193" y="29" class="t dark" font-size="13" font-weight="700" text-anchor="end">مدیر سیستم</text>
<text x="193" y="46" class="t muted" font-size="10" text-anchor="end">شرکت آسود — دفتر مرکزی</text>
<path d="M28 25h17M28 33h17M28 41h17" class="ico"/>

<!-- Settings ribbon -->
<rect y="66" width="1920" height="116" fill="#f8fafd"/>
<line x1="0" y1="181.5" x2="1920" y2="181.5" stroke="#dfe5ee"/>
<rect x="1775" y="77" width="78" height="72" rx="10" fill="#edf3ff"/>
<path d="M1805 96h18v20h-18zM1810 91h8v5M1810 102h8M1810 108h8" fill="none" stroke="#155bd7" stroke-width="2"/>
<text x="1814" y="135" class="t" fill="#155bd7" font-size="12" font-weight="700" text-anchor="middle">داشبورد تنظیمات</text>
<g class="t dark" font-size="11" text-anchor="middle">
  <path d="M1710 98l10-7 10 7v19h-20zM1716 117v-10h8v10" class="ico"/><text x="1720" y="135">ساختار سازمانی</text>
  <path d="M1607 94h22v24h-22zM1612 101h12M1612 107h12M1612 113h8" class="ico"/><text x="1618" y="135">تنظیمات مالی</text>
  <path d="M1510 95h22v22h-22zM1515 101h12M1515 107h7M1515 113h10" class="ico"/><text x="1521" y="135">شماره‌گذاری</text>
  <path d="M1406 104a7 7 0 1 0 14 0a7 7 0 1 0-14 0M1399 120c2-9 26-9 28 0" class="ico"/><text x="1413" y="135">کاربران و نقش‌ها</text>
  <path d="M1304 104h28M1312 96l-8 8 8 8M1324 96l8 8-8 8" class="ico"/><text x="1318" y="135">گردش تأیید</text>
  <path d="M1213 94h22v24h-22zM1213 104h22M1224 94v24" class="ico"/><text x="1224" y="135">حسابداری ایران</text>
  <path d="M1112 97h23v19h-23zM1117 92h13v5M1118 104h11M1118 110h8" class="ico"/><text x="1124" y="135">داده‌های پایه</text>
  <path d="M1018 103v-5a8 8 0 0 1 16 0v5M1015 103h22v17h-22z" class="ico"/><text x="1026" y="135">قفل و کنترل</text>
</g>
<line x1="970" y1="78" x2="970" y2="166" stroke="#dfe5ee"/>
<rect x="716" y="91" width="230" height="38" rx="8" fill="#fff" stroke="#dfe5ee"/><text x="926" y="115" class="t dark" font-size="12" text-anchor="end">شرکت آسود دمو</text>
<rect x="526" y="91" width="175" height="38" rx="8" fill="#fff" stroke="#dfe5ee"/><text x="681" y="115" class="t dark" font-size="12" text-anchor="end">دفتر مرکزی</text>
<rect x="335" y="91" width="176" height="38" rx="8" fill="#fff" stroke="#dfe5ee"/><text x="491" y="115" class="t dark" font-size="12" text-anchor="end">سال مالی ۱۴۰۵</text>
<text x="926" y="155" class="t muted" font-size="10" text-anchor="end">دامنه تنظیمات جاری: Company</text>

<!-- Page heading -->
<rect y="182" width="1920" height="122" fill="#fff"/>
<text x="1848" y="222" class="t dark" font-size="26" font-weight="800" text-anchor="end">داشبورد تنظیمات</text>
<text x="1848" y="245" class="t muted" font-size="12" text-anchor="end">پیکربندی زیرساخت سازمان، مالی، دسترسی و الزامات بومی پیش از شروع عملیات</text>
<rect x="1418" y="264" width="442" height="40" rx="9" fill="#f8fafd" stroke="#dfe5ee"/>
<circle cx="1450" cy="284" r="7" fill="none" stroke="#155bd7" stroke-width="2"/><path d="M1455 289l6 6" stroke="#155bd7" stroke-width="2"/>
<text x="1832" y="289" class="t muted" font-size="12" text-anchor="end">جست‌وجو در تنظیمات...</text>
<rect x="72" y="207" width="184" height="41" rx="8" fill="#fff" stroke="#b9c7dc"/>
<text x="236" y="233" class="t dark" font-size="12" font-weight="700" text-anchor="end">مشاهده رویداد تغییرات</text>

<!-- Status cards -->
<rect x="70" y="326" width="570" height="94" rx="10" class="card"/>
<circle cx="110" cy="373" r="21" fill="#e9f8f0"/><path d="M101 373l6 6 12-15" fill="none" stroke="#168a56" stroke-width="2.5"/>
<text x="610" y="356" class="t muted" font-size="11" text-anchor="end">تنظیمات تکمیل‌شده</text>
<text x="610" y="391" class="t dark" font-size="26" font-weight="800" text-anchor="end">۵ از ۸ بخش</text>
<rect x="655" y="326" width="570" height="94" rx="10" class="card"/>
<circle cx="695" cy="373" r="21" fill="#fff2d8"/><path d="M695 360v16M695 383v1" stroke="#b66a00" stroke-width="2.5"/>
<text x="1195" y="356" class="t muted" font-size="11" text-anchor="end">موارد نیازمند تکمیل</text>
<text x="1195" y="391" class="t dark" font-size="26" font-weight="800" text-anchor="end">۳ مورد</text>
<rect x="1240" y="326" width="610" height="94" rx="10" class="card"/>
<circle cx="1280" cy="373" r="21" fill="#edf3ff"/><path d="M1270 373h20M1280 363v20" stroke="#155bd7" stroke-width="2"/>
<text x="1820" y="356" class="t muted" font-size="11" text-anchor="end">دامنه فعال تنظیمات</text>
<text x="1820" y="391" class="t dark" font-size="20" font-weight="800" text-anchor="end">شرکت آسود / دفتر مرکزی</text>

<!-- Settings group cards -->
<g class="t">
  <rect x="70" y="442" width="420" height="168" rx="10" class="card"/>
  <rect x="432" y="462" width="38" height="38" rx="9" fill="#edf3ff"/><path d="M441 478l10-7 10 7v14h-20zM447 492v-8h8v8" fill="none" stroke="#155bd7" stroke-width="2"/>
  <text x="410" y="480" class="dark" font-size="16" font-weight="800" text-anchor="end">ساختار سازمانی</text>
  <text x="460" y="526" class="muted" font-size="11" text-anchor="end">هلدینگ، شرکت، شعبه و روابط وابستگی</text>
  <text x="460" y="557" fill="#155bd7" font-size="11" font-weight="700" text-anchor="end">۳ بخش تکمیل‌شده ←</text>

  <rect x="505" y="442" width="420" height="168" rx="10" class="card"/>
  <rect x="867" y="462" width="38" height="38" rx="9" fill="#e9f8f0"/><path d="M876 472h20v20h-20zM881 478h10M881 484h10" fill="none" stroke="#168a56" stroke-width="2"/>
  <text x="845" y="480" class="dark" font-size="16" font-weight="800" text-anchor="end">مالی و دوره‌ها</text>
  <text x="895" y="526" class="muted" font-size="11" text-anchor="end">سال مالی، دوره، ارز و نمودار حساب‌ها</text>
  <text x="895" y="557" fill="#168a56" font-size="11" font-weight="700" text-anchor="end">تکمیل شده ←</text>

  <rect x="940" y="442" width="420" height="168" rx="10" class="card"/>
  <rect x="1302" y="462" width="38" height="38" rx="9" fill="#fff2d8"/><path d="M1311 472h20v20h-20zM1316 478h10M1316 484h7" fill="none" stroke="#b66a00" stroke-width="2"/>
  <text x="1280" y="480" class="dark" font-size="16" font-weight="800" text-anchor="end">شماره‌گذاری اسناد</text>
  <text x="1330" y="526" class="muted" font-size="11" text-anchor="end">شماره موقت، قطعی و سری مستقل اسناد</text>
  <text x="1330" y="557" fill="#b66a00" font-size="11" font-weight="700" text-anchor="end">۲ مورد نیازمند تکمیل ←</text>

  <rect x="1375" y="442" width="475" height="168" rx="10" class="card"/>
  <rect x="1792" y="462" width="38" height="38" rx="9" fill="#edf3ff"/><circle cx="1811" cy="476" r="6" fill="none" stroke="#155bd7" stroke-width="2"/><path d="M1800 493c2-9 20-9 22 0" fill="none" stroke="#155bd7" stroke-width="2"/>
  <text x="1770" y="480" class="dark" font-size="16" font-weight="800" text-anchor="end">کاربران و دسترسی‌ها</text>
  <text x="1820" y="526" class="muted" font-size="11" text-anchor="end">عضویت، نقش و دامنه Company/Branch</text>
  <text x="1820" y="557" fill="#155bd7" font-size="11" font-weight="700" text-anchor="end">۴ عضویت فعال ←</text>

  <rect x="70" y="626" width="420" height="168" rx="10" class="card"/>
  <rect x="432" y="646" width="38" height="38" rx="9" fill="#edf3ff"/><path d="M439 665h24M445 657l-6 8 6 8M457 657l6 8-6 8" fill="none" stroke="#155bd7" stroke-width="2"/>
  <text x="410" y="664" class="dark" font-size="16" font-weight="800" text-anchor="end">گردش کار و تأیید</text>
  <text x="460" y="710" class="muted" font-size="11" text-anchor="end">مسیرها، مراحل و قواعد بازگشت سند</text>
  <text x="460" y="741" fill="#155bd7" font-size="11" font-weight="700" text-anchor="end">۳ مسیر فعال ←</text>

  <rect x="505" y="626" width="420" height="168" rx="10" class="card"/>
  <rect x="867" y="646" width="38" height="38" rx="9" fill="#f1eefe"/><path d="M876 655h20v20h-20zM876 664h20M886 655v20" fill="none" stroke="#7257d9" stroke-width="2"/>
  <text x="845" y="664" class="dark" font-size="16" font-weight="800" text-anchor="end">حسابداری ایران</text>
  <text x="895" y="710" class="muted" font-size="11" text-anchor="end">تقویم، مالیات، ارزش افزوده و خروجی قانونی</text>
  <text x="895" y="741" fill="#7257d9" font-size="11" font-weight="700" text-anchor="end">پیکربندی اولیه ←</text>

  <rect x="940" y="626" width="420" height="168" rx="10" class="card"/>
  <rect x="1302" y="646" width="38" height="38" rx="9" fill="#e9f8f0"/><path d="M1311 655h20v19h-20zM1316 650h10v5M1316 662h10M1316 668h7" fill="none" stroke="#168a56" stroke-width="2"/>
  <text x="1280" y="664" class="dark" font-size="16" font-weight="800" text-anchor="end">اطلاعات پایه مشترک</text>
  <text x="1330" y="710" class="muted" font-size="11" text-anchor="end">کالا/خدمت، طرف‌حساب، واحد و شرایط پرداخت</text>
  <text x="1330" y="741" fill="#168a56" font-size="11" font-weight="700" text-anchor="end">تکمیل شده ←</text>

  <rect x="1375" y="626" width="475" height="168" rx="10" class="card"/>
  <rect x="1792" y="646" width="38" height="38" rx="9" fill="#fdecec"/><path d="M1801 657v-4a10 10 0 0 1 20 0v4M1799 657h24v18h-24z" fill="none" stroke="#d14343" stroke-width="2"/>
  <text x="1770" y="664" class="dark" font-size="16" font-weight="800" text-anchor="end">قفل‌ها و کنترل‌ها</text>
  <text x="1820" y="710" class="muted" font-size="11" text-anchor="end">قفل دوره، ویرایش قطعی و رویداد حسابرسی</text>
  <text x="1820" y="741" fill="#d14343" font-size="11" font-weight="700" text-anchor="end">۱ کنترل غیرفعال ←</text>
</g>

<!-- Setup guidance -->
<rect x="70" y="816" width="1780" height="156" rx="10" fill="#fff" stroke="#dfe5ee"/>
<text x="1815" y="853" class="t dark" font-size="16" font-weight="800" text-anchor="end">ترتیب پیشنهادی راه‌اندازی</text>
<line x1="310" y1="908" x2="1610" y2="908" stroke="#c8d3e3" stroke-width="3"/>
<g class="t" text-anchor="middle">
  <circle cx="1610" cy="908" r="22" fill="#155bd7"/><text x="1610" y="914" fill="#fff" font-size="13" font-weight="800">۱</text><text x="1610" y="949" class="dark" font-size="11">ساختار سازمانی</text>
  <circle cx="1350" cy="908" r="22" fill="#edf3ff"/><text x="1350" y="914" fill="#155bd7" font-size="13" font-weight="800">۲</text><text x="1350" y="949" class="dark" font-size="11">مالی و دوره‌ها</text>
  <circle cx="1090" cy="908" r="22" fill="#edf3ff"/><text x="1090" y="914" fill="#155bd7" font-size="13" font-weight="800">۳</text><text x="1090" y="949" class="dark" font-size="11">شماره‌گذاری</text>
  <circle cx="830" cy="908" r="22" fill="#edf3ff"/><text x="830" y="914" fill="#155bd7" font-size="13" font-weight="800">۴</text><text x="830" y="949" class="dark" font-size="11">کاربران و دسترسی</text>
  <circle cx="570" cy="908" r="22" fill="#edf3ff"/><text x="570" y="914" fill="#155bd7" font-size="13" font-weight="800">۵</text><text x="570" y="949" class="dark" font-size="11">کنترل نهایی</text>
  <circle cx="310" cy="908" r="22" fill="#e9f8f0"/><path d="M301 908l6 6 12-15" fill="none" stroke="#168a56" stroke-width="2.5"/><text x="310" y="949" class="dark" font-size="11">آماده عملیات</text>
</g>
<text x="960" y="1058" class="t muted" font-size="10" text-anchor="middle">ASOUD ERP — Base Settings Overview v1 — پوسته اصلی در تمام صفحات ثابت است</text>
</svg>
