<svg xmlns="http://www.w3.org/2000/svg" width="1920" height="1080" viewBox="0 0 1920 1080">
<defs>
 <filter id="shadow" x="-20%" y="-20%" width="140%" height="160%"><feDropShadow dx="0" dy="5" stdDeviation="9" flood-color="#12213d" flood-opacity=".08"/></filter>
 <style>.t{font-family:Vazirmatn,Tahoma,"Segoe UI",sans-serif}.dark{fill:#12213d}.muted{fill:#64748b}.card{fill:#fff;stroke:#dfe5ee}.ico{fill:none;stroke:#12213d;stroke-width:2;stroke-linecap:round;stroke-linejoin:round}.label{font-family:Vazirmatn,Tahoma,sans-serif;fill:#334155;font-size:11px}.value{font-family:Vazirmatn,Tahoma,sans-serif;fill:#12213d;font-size:13px;font-weight:600}</style>
</defs>
<rect width="1920" height="1080" fill="#f5f7fb"/>

<!-- frozen primary navigation -->
<rect width="1920" height="66" fill="#fff"/><line x1="0" y1="65.5" x2="1920" y2="65.5" stroke="#dfe5ee"/>
<rect x="1848" y="14" width="38" height="38" rx="8" fill="#155bd7"/><path d="M1867 21l10 12-10 12-10-12z" fill="none" stroke="#fff" stroke-width="2"/>
<text x="1835" y="40" class="t dark" font-size="22" font-weight="800" text-anchor="end">آسود ERP</text>
<g class="t" font-size="14" fill="#12213d" text-anchor="middle"><text x="1644" y="41">داشبورد</text><text x="1515" y="41">مالی</text><text x="1400" y="41">خزانه‌داری</text><text x="1285" y="41">فروش</text><text x="1180" y="41">خرید</text><text x="1080" y="41">انبار</text><text x="965" y="41">منابع انسانی</text><text x="850" y="41">گزارش‌ها</text><text x="735" y="41" fill="#155bd7" font-weight="700">تنظیمات</text><rect x="686" y="63" width="98" height="3" fill="#155bd7"/></g>
<rect x="384" y="13" width="252" height="40" rx="9" fill="#f8fafd" stroke="#dfe5ee"/><circle cx="414" cy="33" r="7" fill="none" stroke="#155bd7" stroke-width="2"/><path d="M419 38l6 6" stroke="#155bd7" stroke-width="2"/><text x="611" y="38" class="t muted" font-size="12" text-anchor="end">جست‌وجوی ماژول یا فرمان...</text>
<circle cx="350" cy="33" r="7" class="ico"/><path d="M350 23v2M342 43h16" class="ico"/><circle cx="298" cy="32" r="8" class="ico"/><text x="298" y="37" font-family="Arial" font-size="13" text-anchor="middle">?</text>
<circle cx="224" cy="33" r="20" fill="#edf3ff"/><circle cx="224" cy="29" r="6" class="ico"/><path d="M214 44c2-7 18-7 20 0" class="ico"/><text x="193" y="29" class="t dark" font-size="13" font-weight="700" text-anchor="end">مدیر سیستم</text><text x="193" y="46" class="t muted" font-size="10" text-anchor="end">شرکت آسود — دفتر مرکزی</text><path d="M28 25h17M28 33h17M28 41h17" class="ico"/>

<!-- settings ribbon: financial selected -->
<rect y="66" width="1920" height="116" fill="#f8fafd"/><line x1="0" y1="181.5" x2="1920" y2="181.5" stroke="#dfe5ee"/>
<g class="t dark" font-size="11" text-anchor="middle">
 <path d="M1805 96h18v20h-18zM1810 91h8v5M1810 102h8M1810 108h8" class="ico"/><text x="1814" y="135">داشبورد تنظیمات</text>
 <path d="M1710 98l10-7 10 7v19h-20zM1716 117v-10h8v10" class="ico"/><text x="1720" y="135">ساختار سازمانی</text>
</g>
<rect x="1578" y="77" width="80" height="72" rx="10" fill="#edf3ff"/><path d="M1607 94h22v24h-22zM1612 101h12M1612 107h12M1612 113h8" fill="none" stroke="#155bd7" stroke-width="2"/><text x="1618" y="135" class="t" fill="#155bd7" font-size="11" font-weight="700" text-anchor="middle">تنظیمات مالی</text>
<g class="t dark" font-size="11" text-anchor="middle">
 <path d="M1510 95h22v22h-22zM1515 101h12M1515 107h7M1515 113h10" class="ico"/><text x="1521" y="135">شماره‌گذاری</text>
 <path d="M1406 104a7 7 0 1 0 14 0a7 7 0 1 0-14 0M1399 120c2-9 26-9 28 0" class="ico"/><text x="1413" y="135">کاربران و نقش‌ها</text>
 <path d="M1304 104h28M1312 96l-8 8 8 8M1324 96l8 8-8 8" class="ico"/><text x="1318" y="135">گردش تأیید</text>
 <path d="M1213 94h22v24h-22zM1213 104h22M1224 94v24" class="ico"/><text x="1224" y="135">حسابداری ایران</text>
 <path d="M1112 97h23v19h-23zM1117 92h13v5M1118 104h11M1118 110h8" class="ico"/><text x="1124" y="135">داده‌های پایه</text>
 <path d="M1018 103v-5a8 8 0 0 1 16 0v5M1015 103h22v17h-22z" class="ico"/><text x="1026" y="135">قفل و کنترل</text>
</g>
<line x1="970" y1="78" x2="970" y2="166" stroke="#dfe5ee"/>
<rect x="716" y="91" width="230" height="38" rx="8" fill="#fff" stroke="#dfe5ee"/><text x="926" y="115" class="t dark" font-size="12" text-anchor="end">شرکت آسود دمو</text>
<rect x="526" y="91" width="175" height="38" rx="8" fill="#fff" stroke="#dfe5ee"/><text x="681" y="115" class="t dark" font-size="12" text-anchor="end">دفتر مرکزی</text>
<rect x="335" y="91" width="176" height="38" rx="8" fill="#fff" stroke="#dfe5ee"/><text x="491" y="115" class="t dark" font-size="12" text-anchor="end">سال مالی ۱۴۰۵</text>
<text x="926" y="155" class="t muted" font-size="10" text-anchor="end">دامنه تنظیمات جاری: Company</text>

<!-- page header and local tabs -->
<rect y="182" width="1920" height="123" fill="#fff"/>
<text x="1848" y="222" class="t dark" font-size="26" font-weight="800" text-anchor="end">تنظیمات مالی</text>
<text x="1848" y="245" class="t muted" font-size="12" text-anchor="end">مدیریت نمودار حساب‌های نسخه‌دار، سطوح کدینگ و ماهیت حساب‌ها</text>
<rect x="72" y="205" width="145" height="42" rx="8" fill="#155bd7"/><text x="197" y="231" class="t" fill="#fff" font-size="12" font-weight="700" text-anchor="end">+ حساب جدید</text>
<rect x="229" y="205" width="102" height="42" rx="8" fill="#fff" stroke="#b9c7dc"/><text x="309" y="231" class="t dark" font-size="12" text-anchor="end">انصراف</text>
<g class="t dark" font-size="13" text-anchor="middle"><text x='1770' y='286'>عمومی</text><text x='1600' y='286'>سال مالی و دوره‌ها</text><text x='1410' y='286' fill="#155bd7" font-weight="700">نمودار حساب‌ها</text><text x='1220' y='286'>ابعاد حسابداری</text><text x='1015' y='286'>حساب‌های پیش‌فرض</text><text x='790' y='286'>اختتامیه و افتتاحیه</text></g>
<rect x='1338' y='302' width='145' height='3' rx='1.5' fill='#155bd7'/><!-- contextual sidebar -->
<rect x="70" y="327" width="350" height="650" rx="10" class="card"/>
<text x="390" y="365" class="t dark" font-size="16" font-weight="800" text-anchor="end">وضعیت نمودار</text>
<circle cx="115" cy="405" r="22" fill="#e9f8f0"/><path d="M105 405l7 7 13-17" fill="none" stroke="#168a56" stroke-width="2.5"/>
<text x="385" y="399" class="t dark" font-size="14" font-weight="700" text-anchor="end">الگو نصب شده است</text>
<text x="385" y="420" class="t muted" font-size="10" text-anchor="end">نسخه ۱.۰ • عمومی ایران</text>
<line x1="92" y1="447" x2="398" y2="447" stroke="#dfe5ee"/>
<text x="390" y="481" class="t dark" font-size="13" font-weight="700" text-anchor="end">خلاصه کنترل</text>
<text x="390" y="520" class="t muted" font-size="11" text-anchor="end">تعداد حساب‌ها</text><text x="98" y="520" class="t dark" font-size="12" font-weight="700">۹۶ حساب</text>
<text x="390" y="558" class="t muted" font-size="11" text-anchor="end">حساب‌های بدون نگاشت</text><text x="98" y="558" class="t dark" font-size="12" font-weight="700">۰ مورد</text>
<rect x="92" y="622" width="306" height="130" rx="9" fill="#edf3ff"/>
<text x="375" y="652" class="t dark" font-size="12" font-weight="700" text-anchor="end">نکته کنترلی</text>
<foreignObject x="112" y="670" width="266" height="62"><div xmlns="http://www.w3.org/1999/xhtml" dir="rtl" style="font-family:Tahoma,sans-serif;font-size:10px;line-height:1.9;color:#64748b">پس از ثبت گردش مالی، حذف یا تغییر ماهیت حساب ممنوع است. اصلاح ساختار از طریق نسخه جدید و نگاشت کنترل‌شده انجام می‌شود.</div></foreignObject><rect x="440" y="327" width="1410" height="650" rx="10" class="card"/>
<text x="1815" y="365" class="t dark" font-size="17" font-weight="800" text-anchor="end">نمودار حساب‌ها</text>
<text x="1815" y="387" class="t muted" font-size="11" text-anchor="end">ساختار کدینگ چندسطحی، نسخه‌دار و مستقل برای Company</text>
<rect x="470" y="412" width="1350" height="58" rx="8" fill="#f8fafd" stroke="#dfe5ee"/>
<rect x="1510" y="423" width="275" height="36" rx="7" fill="#fff" stroke="#d6deea"/><text x="1760" y="446" class="t muted" font-size="10" text-anchor="end">جست‌وجوی کد یا عنوان حساب...</text>
<rect x="1360" y="423" width="132" height="36" rx="7" fill="#fff" stroke="#b9c7dc"/><text x="1472" y="446" class="t dark" font-size="11" text-anchor="end">سطح: همه⌄</text>
<rect x="1210" y="423" width="132" height="36" rx="7" fill="#fff" stroke="#b9c7dc"/><text x="1322" y="446" class="t dark" font-size="11" text-anchor="end">ماهیت: همه⌄</text>
<text x="500" y="446" class="t" fill="#155bd7" font-size="11">ورود از الگو</text>
<rect x="470" y="486" width="1350" height="46" rx="7" fill="#edf3ff"/>
<g class="t dark" font-size="11" font-weight="700" text-anchor="end"><text x="1780" y="515">کد حساب</text><text x="1560" y="515">عنوان</text><text x="1170" y="515">گروه اصلی</text><text x="900" y="515">ماهیت</text><text x="660" y="515">نوع</text></g>
<g class="t dark" font-size="11" text-anchor="end">
 <rect x="470" y="540" width="1350" height="52" fill="#fff" stroke="#eef1f5"/><text x="1780" y="571" font-weight="800">۱</text><text x="1560" y="571" font-weight="800">دارایی‌ها</text><text x="1170" y="571">دارایی</text><text x="900" y="571">بدهکار</text><text x="660" y="571">گروه</text>
 <rect x="470" y="592" width="1350" height="52" fill="#fff" stroke="#eef1f5"/><text x="1745" y="623">۱۱</text><text x="1525" y="623">دارایی‌های جاری</text><text x="1170" y="623">دارایی</text><text x="900" y="623">بدهکار</text><text x="660" y="623">گروه</text>
 <rect x="470" y="644" width="1350" height="52" fill="#fff" stroke="#eef1f5"/><text x="1710" y="675">۱۱۱</text><text x="1490" y="675">موجودی نقد و بانک</text><text x="1170" y="675">دارایی</text><text x="900" y="675">بدهکار</text><text x="660" y="675">گروه</text>
 <rect x="470" y="696" width="1350" height="52" fill="#fff" stroke="#eef1f5"/><text x="1675" y="727">۱۱۱۰۰۱</text><text x="1455" y="727">صندوق اصلی</text><text x="1170" y="727">دارایی</text><text x="900" y="727">بدهکار</text><text x="660" y="727" fill="#155bd7">صندوق</text>
 <rect x="470" y="748" width="1350" height="52" fill="#fff" stroke="#eef1f5"/><text x="1675" y="779">۱۱۱۰۰۲</text><text x="1455" y="779">حساب‌های بانکی</text><text x="1170" y="779">دارایی</text><text x="900" y="779">بدهکار</text><text x="660" y="779" fill="#155bd7">بانک</text>
 <rect x="470" y="800" width="1350" height="52" fill="#fff" stroke="#eef1f5"/><text x="1675" y="831">۱۱۲۰۰۱</text><text x="1455" y="831">حساب‌های دریافتنی تجاری</text><text x="1170" y="831">دارایی</text><text x="900" y="831">بدهکار</text><text x="660" y="831" fill="#155bd7">دریافتنی</text>
 <rect x="470" y="852" width="1350" height="52" fill="#fff" stroke="#eef1f5"/><text x="1780" y="883" font-weight="800">۲</text><text x="1560" y="883" font-weight="800">بدهی‌ها</text><text x="1170" y="883">بدهی</text><text x="900" y="883">بستانکار</text><text x="660" y="883">گروه</text>
</g><text x='960' y='1058' class='t muted' font-size='10' text-anchor='middle'>ASOUD ERP — Financial Settings / coa v1 — پوسته اصلی ثابت است</text></svg>